# xmcd CD database file generated by OrangeCD 6.1
#
# Track frame offsets:
#	150
#	12855
#	31587
#	47973
#	64967
#	83391
#	101462
#	123794
#	139943
#	155027
#	174713
#	192132
#	206851
#	226388
#	247947
#	274564
#	289814
#	307603
#
# Disc length: 4390 seconds
#
# Revision: 0
# Processed by: cddbd v1.5.2PL0 Copyright (c) Steve Scherf et al.
# Submitted via: OrangeCD 6.1
#
DISCID=eb112412
DTITLE=Various Artist - Easy Rock Volume 2
DYEAR=2008
DGENRE=Dance Easy Rock
TTITLE0=Aretha Franklin - A Natural Woman (You Made Me Fell Like)
TTITLE1=Kenny G With David Benoit - Don't Know Why
TTITLE2=Jacksoul - Still Believe In Love
TTITLE3=Michael McDonald - I Heard It Through The Grapevine
TTITLE4=Kenny G and Michael Bolton - You Send Me
TTITLE5=Julio Iglesias and Diana Ross - All Of You
TTITLE6=The Eagles - I Can't Tell You Why
TTITLE7=The Pointer Sisters - Fire 
TTITLE8=Simply Red - Sunrise
TTITLE9=Lionel Richie - Easy
TTITLE10=Neil Young - Harvest Moon
TTITLE11=Aretha Franklin - Rock Steady
TTITLE12=Michael Jackson - Beat It
TTITLE13=The Temptations - Lady Soul
TTITLE14=Aretha Franklin - Freeway Of Love
TTITLE15=Ottawan - Hands Up Give Me Your Heart
TTITLE16=Simply Red - You Got It
TTITLE17=B.B. King - Darlin' You Know I Love You
EXTD=
EXTT0=
EXTT1=
EXTT2=
EXTT3=
EXTT4=
EXTT5=
EXTT6=
EXTT7=
EXTT8=
EXTT9=
EXTT10=
EXTT11=
EXTT12=
EXTT13=
EXTT14=
EXTT15=
EXTT16=
EXTT17=
PLAYORDER=
